solid switchbracket3
facet normal -0.968957650952088 -0.24722675959817125 -0.0
  outer loop
    vertex 57.11050198953509 52.38285628901368 2.000000000000005
    vertex 57.239580259716085 51.87695887860863 0.0
    vertex 57.239580259716085 51.87695887860863 2.000000000000005
  endloop
endfacet
facet normal -0.968957650952088 -0.24722675959817125 -0.0
  outer loop
    vertex 57.239580259716085 51.87695887860863 0.0
    vertex 57.11050198953509 52.38285628901368 2.000000000000005
    vertex 57.11050198953509 52.38285628901368 0.0
  endloop
endfacet
facet normal -0.9238795325112871 -0.38268343236508895 -0.0
  outer loop
    vertex 56.985755764343885 68.63968418301575 2.000000000000005
    vertex 57.18555660935315 68.15732227322079 0.0
    vertex 57.18555660935315 68.15732227322079 2.000000000000005
  endloop
endfacet
facet normal -0.9238795325112871 -0.38268343236508895 -0.0
  outer loop
    vertex 57.18555660935315 68.15732227322079 0.0
    vertex 56.985755764343885 68.63968418301575 2.000000000000005
    vertex 56.985755764343885 68.63968418301575 0.0
  endloop
endfacet
facet normal -0.2703741711687184 -0.9627553207148889 -0.0
  outer loop
    vertex 56.04115669418689 53.478139991907284 2.000000000000005
    vertex 55.538497549976846 53.61930363605651 0.0
    vertex 56.04115669418689 53.478139991907284 0.0
  endloop
endfacet
facet normal -0.2703741711687184 -0.9627553207148889 -0.0
  outer loop
    vertex 55.538497549976846 53.61930363605651 0.0
    vertex 56.04115669418689 53.478139991907284 2.000000000000005
    vertex 55.538497549976846 53.61930363605651 2.000000000000005
  endloop
endfacet
facet normal -0.9999282134779993 0.011981981918570314 0.0
  outer loop
    vertex 57.239580259716085 51.87695887860863 2.000000000000005
    vertex 57.233324409815765 51.3548915898139 0.0
    vertex 57.233324409815765 51.3548915898139 2.000000000000005
  endloop
endfacet
facet normal -0.9999282134779993 0.011981981918570314 0.0
  outer loop
    vertex 57.233324409815765 51.3548915898139 0.0
    vertex 57.239580259716085 51.87695887860863 2.000000000000005
    vertex 57.239580259716085 51.87695887860863 0.0
  endloop
endfacet
facet normal -0.7933533402912359 0.6087614290087197 0.0
  outer loop
    vertex 56.985755764343885 66.63968418301575 2.000000000000005
    vertex 56.6679185191481 66.22547062064265 0.0
    vertex 56.6679185191481 66.22547062064265 2.000000000000005
  endloop
endfacet
facet normal -0.7933533402912359 0.6087614290087197 0.0
  outer loop
    vertex 56.6679185191481 66.22547062064265 0.0
    vertex 56.985755764343885 66.63968418301575 2.000000000000005
    vertex 56.985755764343885 66.63968418301575 0.0
  endloop
endfacet
facet normal 0.7933533402912347 -0.6087614290087213 0.0
  outer loop
    vertex 53.83949139440192 69.05389774538884 0.0
    vertex 53.52165414920613 68.63968418301575 2.000000000000005
    vertex 53.52165414920613 68.63968418301575 0.0
  endloop
endfacet
facet normal 0.7933533402912347 -0.6087614290087213 0.0
  outer loop
    vertex 53.52165414920613 68.63968418301575 2.000000000000005
    vertex 53.83949139440192 69.05389774538884 0.0
    vertex 53.83949139440192 69.05389774538884 2.000000000000005
  endloop
endfacet
facet normal 0.7155285611167166 0.6985834797833693 0.0
  outer loop
    vertex 53.65252384347637 50.441260617486556 0.0
    vertex 54.01725760973219 50.067679743457525 2.000000000000005
    vertex 54.01725760973219 50.067679743457525 0.0
  endloop
endfacet
facet normal 0.7155285611167166 0.6985834797833693 0.0
  outer loop
    vertex 54.01725760973219 50.067679743457525 2.000000000000005
    vertex 53.65252384347637 50.441260617486556 0.0
    vertex 53.65252384347637 50.441260617486556 2.000000000000005
  endloop
endfacet
facet normal -0.1305261922200518 0.9914448613738104 0.0
  outer loop
    vertex 55.25370495677502 65.63968418301575 2.000000000000005
    vertex 55.77134304698005 65.70783253043761 0.0
    vertex 55.25370495677502 65.63968418301575 0.0
  endloop
endfacet
facet normal -0.1305261922200518 0.9914448613738104 0.0
  outer loop
    vertex 55.77134304698005 65.70783253043761 0.0
    vertex 55.25370495677502 65.63968418301575 2.000000000000005
    vertex 55.77134304698005 65.70783253043761 2.000000000000005
  endloop
endfacet
facet normal 0.698583479783368 -0.7155285611167179 0.0
  outer loop
    vertex 54.05528139124581 53.2408652963144 2.000000000000005
    vertex 53.68170051721678 52.87613153005857 0.0
    vertex 54.05528139124581 53.2408652963144 0.0
  endloop
endfacet
facet normal 0.698583479783368 -0.7155285611167179 0.0
  outer loop
    vertex 53.68170051721678 52.87613153005857 0.0
    vertex 54.05528139124581 53.2408652963144 2.000000000000005
    vertex 53.68170051721678 52.87613153005857 2.000000000000005
  endloop
endfacet
facet normal 0.968957650952088 0.24722675959817125 0.0
  outer loop
    vertex 53.267829653833935 51.402409487422865 0.0
    vertex 53.39690792401495 50.89651207701782 2.000000000000005
    vertex 53.39690792401495 50.89651207701782 0.0
  endloop
endfacet
facet normal 0.968957650952088 0.24722675959817125 0.0
  outer loop
    vertex 53.39690792401495 50.89651207701782 2.000000000000005
    vertex 53.267829653833935 51.402409487422865 0.0
    vertex 53.267829653833935 51.402409487422865 2.000000000000005
  endloop
endfacet
facet normal 0.0 1.0 0.0
  outer loop
    vertex 45.25370495677501 75.63968418301575 2.000000000000005
    vertex 73.25370495677501 75.63968418301575 4.93494134445882e-15
    vertex 45.25370495677501 75.63968418301575 4.93494134445882e-15
  endloop
endfacet
facet normal 0.0 1.0 0.0
  outer loop
    vertex 73.25370495677501 75.63968418301575 4.93494134445882e-15
    vertex 45.25370495677501 75.63968418301575 2.000000000000005
    vertex 73.25370495677501 75.63968418301575 2.0000000000000053
  endloop
endfacet
facet normal 0.0 -1.0 0.0
  outer loop
    vertex 73.25370495677501 43.63968418301575 2.000000000000005
    vertex 45.25370495677501 43.63968418301575 4.93494134445882e-15
    vertex 73.25370495677501 43.63968418301575 4.93494134445882e-15
  endloop
endfacet
facet normal 0.0 -1.0 0.0
  outer loop
    vertex 45.25370495677501 43.63968418301575 4.93494134445882e-15
    vertex 73.25370495677501 43.63968418301575 2.000000000000005
    vertex 45.25370495677501 43.63968418301575 2.0000000000000053
  endloop
endfacet
facet normal -0.13052619222005216 -0.9914448613738104 -0.0
  outer loop
    vertex 55.77134304698005 69.57153583559389 2.000000000000005
    vertex 55.25370495677502 69.63968418301575 0.0
    vertex 55.77134304698005 69.57153583559389 0.0
  endloop
endfacet
facet normal -0.13052619222005216 -0.9914448613738104 -0.0
  outer loop
    vertex 55.25370495677502 69.63968418301575 0.0
    vertex 55.77134304698005 69.57153583559389 2.000000000000005
    vertex 55.25370495677502 69.63968418301575 2.000000000000005
  endloop
endfacet
facet normal 0.962755320714888 -0.27037417116872164 0.0
  outer loop
    vertex 53.41524914788348 52.42713592042763 0.0
    vertex 53.274085503734256 51.924476776217595 2.000000000000005
    vertex 53.274085503734256 51.924476776217595 0.0
  endloop
endfacet
facet normal 0.962755320714888 -0.27037417116872164 0.0
  outer loop
    vertex 53.274085503734256 51.924476776217595 2.000000000000005
    vertex 53.41524914788348 52.42713592042763 0.0
    vertex 53.41524914788348 52.42713592042763 2.000000000000005
  endloop
endfacet
facet normal -0.8719542257920212 -0.489587406009833 -0.0
  outer loop
    vertex 56.854886070073654 52.83810774854495 2.000000000000005
    vertex 57.11050198953509 52.38285628901368 0.0
    vertex 57.11050198953509 52.38285628901368 2.000000000000005
  endloop
endfacet
facet normal -0.8719542257920212 -0.489587406009833 -0.0
  outer loop
    vertex 57.11050198953509 52.38285628901368 0.0
    vertex 56.854886070073654 52.83810774854495 2.000000000000005
    vertex 56.854886070073654 52.83810774854495 0.0
  endloop
endfacet
facet normal -0.011981981918570314 -0.9999282134779993 -0.0
  outer loop
    vertex 55.538497549976846 53.61930363605651 2.000000000000005
    vertex 55.01643026118213 53.62555948595682 0.0
    vertex 55.538497549976846 53.61930363605651 0.0
  endloop
endfacet
facet normal -0.011981981918570314 -0.9999282134779993 -0.0
  outer loop
    vertex 55.01643026118213 53.62555948595682 0.0
    vertex 55.538497549976846 53.61930363605651 2.000000000000005
    vertex 55.01643026118213 53.62555948595682 2.000000000000005
  endloop
endfacet
facet normal 0.7933533402912347 0.6087614290087213 0.0
  outer loop
    vertex 53.521654149206135 66.63968418301575 0.0
    vertex 53.83949139440192 66.22547062064265 2.000000000000005
    vertex 53.83949139440192 66.22547062064265 0.0
  endloop
endfacet
facet normal 0.7933533402912347 0.6087614290087213 0.0
  outer loop
    vertex 53.83949139440192 66.22547062064265 2.000000000000005
    vertex 53.521654149206135 66.63968418301575 0.0
    vertex 53.521654149206135 66.63968418301575 2.000000000000005
  endloop
endfacet
facet normal 0.9999282134779992 -0.01198198191857028 0.0
  outer loop
    vertex 53.274085503734256 51.924476776217595 0.0
    vertex 53.267829653833935 51.402409487422865 2.000000000000005
    vertex 53.267829653833935 51.402409487422865 0.0
  endloop
endfacet
facet normal 0.9999282134779992 -0.01198198191857028 0.0
  outer loop
    vertex 53.267829653833935 51.402409487422865 2.000000000000005
    vertex 53.274085503734256 51.924476776217595 0.0
    vertex 53.274085503734256 51.924476776217595 2.000000000000005
  endloop
endfacet
facet normal 0.011981981918570314 0.9999282134779993 0.0
  outer loop
    vertex 54.96891236357316 49.660064729975005 2.000000000000005
    vertex 55.49097965236789 49.65380888007468 0.0
    vertex 54.96891236357316 49.660064729975005 0.0
  endloop
endfacet
facet normal 0.011981981918570314 0.9999282134779993 0.0
  outer loop
    vertex 55.49097965236789 49.65380888007468 0.0
    vertex 54.96891236357316 49.660064729975005 2.000000000000005
    vertex 55.49097965236789 49.65380888007468 2.000000000000005
  endloop
endfacet
facet normal -0.9238795325112871 0.38268343236508895 0.0
  outer loop
    vertex 57.18555660935315 67.1220460928107 2.000000000000005
    vertex 56.985755764343885 66.63968418301575 0.0
    vertex 56.985755764343885 66.63968418301575 2.000000000000005
  endloop
endfacet
facet normal -0.9238795325112871 0.38268343236508895 0.0
  outer loop
    vertex 56.985755764343885 66.63968418301575 0.0
    vertex 57.18555660935315 67.1220460928107 2.000000000000005
    vertex 57.18555660935315 67.1220460928107 0.0
  endloop
endfacet
facet normal 0.6087614290087248 -0.7933533402912322 0.0
  outer loop
    vertex 54.253704956775 69.37173499058463 2.000000000000005
    vertex 53.83949139440192 69.05389774538884 0.0
    vertex 54.253704956775 69.37173499058463 0.0
  endloop
endfacet
facet normal 0.6087614290087248 -0.7933533402912322 0.0
  outer loop
    vertex 53.83949139440192 69.05389774538884 0.0
    vertex 54.253704956775 69.37173499058463 2.000000000000005
    vertex 53.83949139440192 69.05389774538884 2.000000000000005
  endloop
endfacet
facet normal -0.6087614290087234 -0.7933533402912331 -0.0
  outer loop
    vertex 56.6679185191481 69.05389774538884 2.000000000000005
    vertex 56.25370495677501 69.37173499058463 0.0
    vertex 56.6679185191481 69.05389774538884 0.0
  endloop
endfacet
facet normal -0.6087614290087234 -0.7933533402912331 -0.0
  outer loop
    vertex 56.25370495677501 69.37173499058463 0.0
    vertex 56.6679185191481 69.05389774538884 2.000000000000005
    vertex 56.25370495677501 69.37173499058463 2.000000000000005
  endloop
endfacet
facet normal 0.1305261922200518 0.9914448613738104 0.0
  outer loop
    vertex 54.73606686656997 65.70783253043761 2.000000000000005
    vertex 55.25370495677502 65.63968418301575 0.0
    vertex 54.73606686656997 65.70783253043761 0.0
  endloop
endfacet
facet normal 0.1305261922200518 0.9914448613738104 0.0
  outer loop
    vertex 55.25370495677502 65.63968418301575 0.0
    vertex 54.73606686656997 65.70783253043761 2.000000000000005
    vertex 55.25370495677502 65.63968418301575 2.000000000000005
  endloop
endfacet
facet normal -0.489587406009832 0.8719542257920216 0.0
  outer loop
    vertex 55.99687706277294 49.78288715025568 2.000000000000005
    vertex 56.45212852230421 50.0385030697171 0.0
    vertex 55.99687706277294 49.78288715025568 0.0
  endloop
endfacet
facet normal -0.489587406009832 0.8719542257920216 0.0
  outer loop
    vertex 56.45212852230421 50.0385030697171 0.0
    vertex 55.99687706277294 49.78288715025568 2.000000000000005
    vertex 56.45212852230421 50.0385030697171 2.000000000000005
  endloop
endfacet
facet normal 1.2457050325083262e-17 -1.9017874737708663e-17 -1.0
  outer loop
    vertex 53.32185330419687 67.1220460928107 0.0
    vertex 53.267829653833935 51.402409487422865 0.0
    vertex 53.25370495677501 67.63968418301576 0.0
  endloop
endfacet
facet normal 1.2457050325083262e-17 -1.9017874737708663e-17 -1.0
  outer loop
    vertex 53.267829653833935 51.402409487422865 0.0
    vertex 53.32185330419687 67.1220460928107 0.0
    vertex 53.274085503734256 51.924476776217595 0.0
  endloop
endfacet
facet normal 1.2457050325083262e-17 -1.9017874737708663e-17 -1.0
  outer loop
    vertex 53.274085503734256 51.924476776217595 0.0
    vertex 53.32185330419687 67.1220460928107 0.0
    vertex 53.41524914788348 52.42713592042763 0.0
  endloop
endfacet
facet normal 1.2457050325083262e-17 -1.9017874737708663e-17 -1.0
  outer loop
    vertex 53.41524914788348 52.42713592042763 0.0
    vertex 53.32185330419687 67.1220460928107 0.0
    vertex 53.521654149206135 66.63968418301575 0.0
  endloop
endfacet
facet normal 1.2457050325083262e-17 -1.9017874737708663e-17 -1.0
  outer loop
    vertex 53.41524914788348 52.42713592042763 0.0
    vertex 53.521654149206135 66.63968418301575 0.0
    vertex 53.68170051721678 52.87613153005857 0.0
  endloop
endfacet
facet normal 1.2457050325083262e-17 -1.9017874737708663e-17 -1.0
  outer loop
    vertex 53.68170051721678 52.87613153005857 0.0
    vertex 53.521654149206135 66.63968418301575 0.0
    vertex 53.83949139440192 66.22547062064265 0.0
  endloop
endfacet
facet normal 1.2457050325083262e-17 -1.9017874737708663e-17 -1.0
  outer loop
    vertex 53.68170051721678 52.87613153005857 0.0
    vertex 53.83949139440192 66.22547062064265 0.0
    vertex 54.05528139124581 53.2408652963144 0.0
  endloop
endfacet
facet normal 1.2457050325083262e-17 -1.9017874737708663e-17 -1.0
  outer loop
    vertex 54.05528139124581 53.2408652963144 0.0
    vertex 53.83949139440192 66.22547062064265 0.0
    vertex 54.253704956775 65.90763337544686 0.0
  endloop
endfacet
facet normal 1.2457050325083262e-17 -1.9017874737708663e-17 -1.0
  outer loop
    vertex 54.05528139124581 53.2408652963144 0.0
    vertex 54.253704956775 65.90763337544686 0.0
    vertex 54.51053285077708 53.496481215775816 0.0
  endloop
endfacet
facet normal 1.2457050325083262e-17 -1.9017874737708663e-17 -1.0
  outer loop
    vertex 54.51053285077708 53.496481215775816 0.0
    vertex 54.253704956775 65.90763337544686 0.0
    vertex 54.73606686656997 65.70783253043761 0.0
  endloop
endfacet
facet normal 1.2457050325083262e-17 -1.9017874737708663e-17 -1.0
  outer loop
    vertex 54.51053285077708 53.496481215775816 0.0
    vertex 54.73606686656997 65.70783253043761 0.0
    vertex 55.01643026118213 53.62555948595682 0.0
  endloop
endfacet
facet normal 1.2457050325083262e-17 -1.9017874737708663e-17 -1.0
  outer loop
    vertex 55.01643026118213 53.62555948595682 0.0
    vertex 54.73606686656997 65.70783253043761 0.0
    vertex 55.25370495677502 65.63968418301575 0.0
  endloop
endfacet
facet normal 1.2457050325083262e-17 -1.9017874737708663e-17 -1.0
  outer loop
    vertex 55.01643026118213 53.62555948595682 0.0
    vertex 55.25370495677502 65.63968418301575 0.0
    vertex 55.538497549976846 53.61930363605651 0.0
  endloop
endfacet
facet normal 1.2457050325083262e-17 -1.9017874737708663e-17 -1.0
  outer loop
    vertex 55.538497549976846 53.61930363605651 0.0
    vertex 55.25370495677502 65.63968418301575 0.0
    vertex 55.77134304698005 65.70783253043761 0.0
  endloop
endfacet
facet normal 1.2457050325083262e-17 -1.9017874737708663e-17 -1.0
  outer loop
    vertex 55.538497549976846 53.61930363605651 0.0
    vertex 55.77134304698005 65.70783253043761 0.0
    vertex 56.04115669418689 53.478139991907284 0.0
  endloop
endfacet
facet normal 1.2457050325083262e-17 -1.9017874737708663e-17 -1.0
  outer loop
    vertex 56.04115669418689 53.478139991907284 0.0
    vertex 55.77134304698005 65.70783253043761 0.0
    vertex 56.25370495677501 65.90763337544686 0.0
  endloop
endfacet
facet normal 1.2457050325083262e-17 -1.9017874737708663e-17 -1.0
  outer loop
    vertex 56.04115669418689 53.478139991907284 0.0
    vertex 56.25370495677501 65.90763337544686 0.0
    vertex 56.49015230381783 53.21168862257397 0.0
  endloop
endfacet
facet normal 1.2457050325083262e-17 -1.9017874737708663e-17 -1.0
  outer loop
    vertex 56.49015230381783 53.21168862257397 0.0
    vertex 56.25370495677501 65.90763337544686 0.0
    vertex 56.6679185191481 66.22547062064265 0.0
  endloop
endfacet
facet normal 1.2457050325083262e-17 -1.9017874737708663e-17 -1.0
  outer loop
    vertex 56.49015230381783 53.21168862257397 0.0
    vertex 56.6679185191481 66.22547062064265 0.0
    vertex 56.854886070073654 52.83810774854495 0.0
  endloop
endfacet
facet normal 1.2457050325083262e-17 -1.9017874737708663e-17 -1.0
  outer loop
    vertex 56.854886070073654 52.83810774854495 0.0
    vertex 56.6679185191481 66.22547062064265 0.0
    vertex 56.985755764343885 66.63968418301575 0.0
  endloop
endfacet
facet normal 1.2457050325083262e-17 -1.9017874737708663e-17 -1.0
  outer loop
    vertex 56.854886070073654 52.83810774854495 0.0
    vertex 56.985755764343885 66.63968418301575 0.0
    vertex 57.11050198953509 52.38285628901368 0.0
  endloop
endfacet
facet normal 1.2457050325083262e-17 -1.9017874737708663e-17 -1.0
  outer loop
    vertex 57.11050198953509 52.38285628901368 0.0
    vertex 56.985755764343885 66.63968418301575 0.0
    vertex 57.18555660935315 67.1220460928107 0.0
  endloop
endfacet
facet normal 1.2457050325083262e-17 -1.9017874737708663e-17 -1.0
  outer loop
    vertex 57.11050198953509 52.38285628901368 0.0
    vertex 57.18555660935315 67.1220460928107 0.0
    vertex 57.239580259716085 51.87695887860863 0.0
  endloop
endfacet
facet normal 1.2457050325083262e-17 -1.9017874737708663e-17 -1.0
  outer loop
    vertex 57.239580259716085 51.87695887860863 0.0
    vertex 57.18555660935315 67.1220460928107 0.0
    vertex 57.25370495677501 67.63968418301576 0.0
  endloop
endfacet
facet normal 1.2457050325083262e-17 -1.9017874737708663e-17 -1.0
  outer loop
    vertex 45.25370495677501 75.63968418301575 4.93494134445882e-15
    vertex 53.32185330419687 68.15732227322079 0.0
    vertex 45.25370495677501 43.63968418301575 4.93494134445882e-15
  endloop
endfacet
facet normal 1.2457050325083262e-17 -1.9017874737708663e-17 -1.0
  outer loop
    vertex 53.32185330419687 68.15732227322079 0.0
    vertex 45.25370495677501 75.63968418301575 4.93494134445882e-15
    vertex 53.52165414920613 68.63968418301575 0.0
  endloop
endfacet
facet normal 1.2457050325083262e-17 -1.9017874737708663e-17 -1.0
  outer loop
    vertex 53.52165414920613 68.63968418301575 0.0
    vertex 45.25370495677501 75.63968418301575 4.93494134445882e-15
    vertex 53.83949139440192 69.05389774538884 0.0
  endloop
endfacet
facet normal 1.2457050325083262e-17 -1.9017874737708663e-17 -1.0
  outer loop
    vertex 53.83949139440192 69.05389774538884 0.0
    vertex 45.25370495677501 75.63968418301575 4.93494134445882e-15
    vertex 54.253704956775 69.37173499058463 0.0
  endloop
endfacet
facet normal 1.2457050325083262e-17 -1.9017874737708663e-17 -1.0
  outer loop
    vertex 54.253704956775 69.37173499058463 0.0
    vertex 45.25370495677501 75.63968418301575 4.93494134445882e-15
    vertex 54.73606686656997 69.57153583559389 0.0
  endloop
endfacet
facet normal 1.2457050325083262e-17 -1.9017874737708663e-17 -1.0
  outer loop
    vertex 54.73606686656997 69.57153583559389 0.0
    vertex 45.25370495677501 75.63968418301575 4.93494134445882e-15
    vertex 73.25370495677501 75.63968418301575 4.93494134445882e-15
  endloop
endfacet
facet normal 1.2457050325083262e-17 -1.9017874737708663e-17 -1.0
  outer loop
    vertex 45.25370495677501 43.63968418301575 4.93494134445882e-15
    vertex 53.32185330419687 68.15732227322079 0.0
    vertex 53.25370495677501 67.63968418301576 0.0
  endloop
endfacet
facet normal 1.2457050325083262e-17 -1.9017874737708663e-17 -1.0
  outer loop
    vertex 54.73606686656997 69.57153583559389 0.0
    vertex 73.25370495677501 75.63968418301575 4.93494134445882e-15
    vertex 55.25370495677502 69.63968418301575 0.0
  endloop
endfacet
facet normal 1.2457050325083262e-17 -1.9017874737708663e-17 -1.0
  outer loop
    vertex 55.25370495677502 69.63968418301575 0.0
    vertex 73.25370495677501 75.63968418301575 4.93494134445882e-15
    vertex 55.77134304698005 69.57153583559389 0.0
  endloop
endfacet
facet normal 1.2457050325083262e-17 -1.9017874737708663e-17 -1.0
  outer loop
    vertex 55.77134304698005 69.57153583559389 0.0
    vertex 73.25370495677501 75.63968418301575 4.93494134445882e-15
    vertex 56.25370495677501 69.37173499058463 0.0
  endloop
endfacet
facet normal 1.2457050325083262e-17 -1.9017874737708663e-17 -1.0
  outer loop
    vertex 56.25370495677501 69.37173499058463 0.0
    vertex 73.25370495677501 75.63968418301575 4.93494134445882e-15
    vertex 56.6679185191481 69.05389774538884 0.0
  endloop
endfacet
facet normal 1.2457050325083262e-17 -1.9017874737708663e-17 -1.0
  outer loop
    vertex 56.6679185191481 69.05389774538884 0.0
    vertex 73.25370495677501 75.63968418301575 4.93494134445882e-15
    vertex 56.985755764343885 68.63968418301575 0.0
  endloop
endfacet
facet normal 1.2457050325083262e-17 -1.9017874737708663e-17 -1.0
  outer loop
    vertex 56.985755764343885 68.63968418301575 0.0
    vertex 73.25370495677501 75.63968418301575 4.93494134445882e-15
    vertex 57.18555660935315 68.15732227322079 0.0
  endloop
endfacet
facet normal 1.2457050325083262e-17 -1.9017874737708663e-17 -1.0
  outer loop
    vertex 57.18555660935315 68.15732227322079 0.0
    vertex 73.25370495677501 75.63968418301575 4.93494134445882e-15
    vertex 57.25370495677501 67.63968418301576 0.0
  endloop
endfacet
facet normal 1.2457050325083262e-17 -1.9017874737708663e-17 -1.0
  outer loop
    vertex 45.25370495677501 43.63968418301575 4.93494134445882e-15
    vertex 54.46625321936313 49.80122837412422 0.0
    vertex 73.25370495677501 43.63968418301575 4.93494134445882e-15
  endloop
endfacet
facet normal 1.2457050325083262e-17 -1.9017874737708663e-17 -1.0
  outer loop
    vertex 54.46625321936313 49.80122837412422 0.0
    vertex 45.25370495677501 43.63968418301575 4.93494134445882e-15
    vertex 54.01725760973219 50.067679743457525 0.0
  endloop
endfacet
facet normal 1.2457050325083262e-17 -1.9017874737708663e-17 -1.0
  outer loop
    vertex 54.01725760973219 50.067679743457525 0.0
    vertex 45.25370495677501 43.63968418301575 4.93494134445882e-15
    vertex 53.65252384347637 50.441260617486556 0.0
  endloop
endfacet
facet normal 1.2457050325083262e-17 -1.9017874737708663e-17 -1.0
  outer loop
    vertex 53.65252384347637 50.441260617486556 0.0
    vertex 45.25370495677501 43.63968418301575 4.93494134445882e-15
    vertex 53.39690792401495 50.89651207701782 0.0
  endloop
endfacet
facet normal 1.2457050325083262e-17 -1.9017874737708663e-17 -1.0
  outer loop
    vertex 53.39690792401495 50.89651207701782 0.0
    vertex 45.25370495677501 43.63968418301575 4.93494134445882e-15
    vertex 53.267829653833935 51.402409487422865 0.0
  endloop
endfacet
facet normal 1.2457050325083262e-17 -1.9017874737708663e-17 -1.0
  outer loop
    vertex 53.267829653833935 51.402409487422865 0.0
    vertex 45.25370495677501 43.63968418301575 4.93494134445882e-15
    vertex 53.25370495677501 67.63968418301576 0.0
  endloop
endfacet
facet normal 1.2457050325083262e-17 -1.9017874737708663e-17 -1.0
  outer loop
    vertex 73.25370495677501 43.63968418301575 4.93494134445882e-15
    vertex 54.46625321936313 49.80122837412422 0.0
    vertex 54.96891236357316 49.660064729975005 0.0
  endloop
endfacet
facet normal 1.2457050325083262e-17 -1.9017874737708663e-17 -1.0
  outer loop
    vertex 73.25370495677501 43.63968418301575 4.93494134445882e-15
    vertex 54.96891236357316 49.660064729975005 0.0
    vertex 55.49097965236789 49.65380888007468 0.0
  endloop
endfacet
facet normal 1.2457050325083262e-17 -1.9017874737708663e-17 -1.0
  outer loop
    vertex 73.25370495677501 43.63968418301575 4.93494134445882e-15
    vertex 55.49097965236789 49.65380888007468 0.0
    vertex 55.99687706277294 49.78288715025568 0.0
  endloop
endfacet
facet normal 1.2457050325083262e-17 -1.9017874737708663e-17 -1.0
  outer loop
    vertex 73.25370495677501 43.63968418301575 4.93494134445882e-15
    vertex 55.99687706277294 49.78288715025568 0.0
    vertex 56.45212852230421 50.0385030697171 0.0
  endloop
endfacet
facet normal 1.2457050325083262e-17 -1.9017874737708663e-17 -1.0
  outer loop
    vertex 73.25370495677501 43.63968418301575 4.93494134445882e-15
    vertex 56.45212852230421 50.0385030697171 0.0
    vertex 56.82570939633323 50.40323683597293 0.0
  endloop
endfacet
facet normal 1.2457050325083262e-17 -1.9017874737708663e-17 -1.0
  outer loop
    vertex 73.25370495677501 43.63968418301575 4.93494134445882e-15
    vertex 56.82570939633323 50.40323683597293 0.0
    vertex 57.09216076566654 50.85223244560387 0.0
  endloop
endfacet
facet normal 1.2457050325083262e-17 -1.9017874737708663e-17 -1.0
  outer loop
    vertex 73.25370495677501 43.63968418301575 4.93494134445882e-15
    vertex 57.09216076566654 50.85223244560387 0.0
    vertex 57.233324409815765 51.3548915898139 0.0
  endloop
endfacet
facet normal 1.2457050325083262e-17 -1.9017874737708663e-17 -1.0
  outer loop
    vertex 73.25370495677501 43.63968418301575 4.93494134445882e-15
    vertex 57.233324409815765 51.3548915898139 0.0
    vertex 57.239580259716085 51.87695887860863 0.0
  endloop
endfacet
facet normal 1.2457050325083262e-17 -1.9017874737708663e-17 -1.0
  outer loop
    vertex 73.25370495677501 43.63968418301575 4.93494134445882e-15
    vertex 57.239580259716085 51.87695887860863 0.0
    vertex 57.25370495677501 67.63968418301576 0.0
  endloop
endfacet
facet normal 1.2457050325083262e-17 -1.9017874737708663e-17 -1.0
  outer loop
    vertex 73.25370495677501 43.63968418301575 4.93494134445882e-15
    vertex 57.25370495677501 67.63968418301576 0.0
    vertex 73.25370495677501 75.63968418301575 4.93494134445882e-15
  endloop
endfacet
facet normal 0.9914448613738107 -0.1305261922200495 0.0
  outer loop
    vertex 53.32185330419687 68.15732227322079 0.0
    vertex 53.25370495677501 67.63968418301576 2.000000000000005
    vertex 53.25370495677501 67.63968418301576 0.0
  endloop
endfacet
facet normal 0.9914448613738107 -0.1305261922200495 0.0
  outer loop
    vertex 53.25370495677501 67.63968418301576 2.000000000000005
    vertex 53.32185330419687 68.15732227322079 0.0
    vertex 53.32185330419687 68.15732227322079 2.000000000000005
  endloop
endfacet
facet normal 0.9238795325112871 -0.38268343236508895 0.0
  outer loop
    vertex 53.52165414920613 68.63968418301575 0.0
    vertex 53.32185330419687 68.15732227322079 2.000000000000005
    vertex 53.32185330419687 68.15732227322079 0.0
  endloop
endfacet
facet normal 0.9238795325112871 -0.38268343236508895 0.0
  outer loop
    vertex 53.32185330419687 68.15732227322079 2.000000000000005
    vertex 53.52165414920613 68.63968418301575 0.0
    vertex 53.52165414920613 68.63968418301575 2.000000000000005
  endloop
endfacet
facet normal 0.8719542257920223 0.48958740600983086 0.0
  outer loop
    vertex 53.39690792401495 50.89651207701782 0.0
    vertex 53.65252384347637 50.441260617486556 2.000000000000005
    vertex 53.65252384347637 50.441260617486556 0.0
  endloop
endfacet
facet normal 0.8719542257920223 0.48958740600983086 0.0
  outer loop
    vertex 53.65252384347637 50.441260617486556 2.000000000000005
    vertex 53.39690792401495 50.89651207701782 0.0
    vertex 53.39690792401495 50.89651207701782 2.000000000000005
  endloop
endfacet
facet normal 1.0 0.0 0.0
  outer loop
    vertex 73.25370495677501 75.63968418301575 4.93494134445882e-15
    vertex 73.25370495677501 43.63968418301575 2.000000000000005
    vertex 73.25370495677501 43.63968418301575 4.93494134445882e-15
  endloop
endfacet
facet normal 1.0 0.0 0.0
  outer loop
    vertex 73.25370495677501 43.63968418301575 2.000000000000005
    vertex 73.25370495677501 75.63968418301575 4.93494134445882e-15
    vertex 73.25370495677501 75.63968418301575 2.0000000000000053
  endloop
endfacet
facet normal -1.0 0.0 0.0
  outer loop
    vertex 45.25370495677501 75.63968418301575 2.000000000000005
    vertex 45.25370495677501 43.63968418301575 4.93494134445882e-15
    vertex 45.25370495677501 43.63968418301575 2.0000000000000053
  endloop
endfacet
facet normal -1.0 0.0 0.0
  outer loop
    vertex 45.25370495677501 43.63968418301575 4.93494134445882e-15
    vertex 45.25370495677501 75.63968418301575 2.000000000000005
    vertex 45.25370495677501 75.63968418301575 4.93494134445882e-15
  endloop
endfacet
facet normal -0.2472267595981706 0.9689576509520881 0.0
  outer loop
    vertex 55.49097965236789 49.65380888007468 2.000000000000005
    vertex 55.99687706277294 49.78288715025568 0.0
    vertex 55.49097965236789 49.65380888007468 0.0
  endloop
endfacet
facet normal -0.2472267595981706 0.9689576509520881 0.0
  outer loop
    vertex 55.99687706277294 49.78288715025568 0.0
    vertex 55.49097965236789 49.65380888007468 2.000000000000005
    vertex 55.99687706277294 49.78288715025568 2.000000000000005
  endloop
endfacet
facet normal -0.7155285611167179 -0.698583479783368 -0.0
  outer loop
    vertex 56.49015230381783 53.21168862257397 2.000000000000005
    vertex 56.854886070073654 52.83810774854495 0.0
    vertex 56.854886070073654 52.83810774854495 2.000000000000005
  endloop
endfacet
facet normal -0.7155285611167179 -0.698583479783368 -0.0
  outer loop
    vertex 56.854886070073654 52.83810774854495 0.0
    vertex 56.49015230381783 53.21168862257397 2.000000000000005
    vertex 56.49015230381783 53.21168862257397 0.0
  endloop
endfacet
facet normal -0.9627553207148882 0.2703741711687209 0.0
  outer loop
    vertex 57.233324409815765 51.3548915898139 2.000000000000005
    vertex 57.09216076566654 50.85223244560387 0.0
    vertex 57.09216076566654 50.85223244560387 2.000000000000005
  endloop
endfacet
facet normal -0.9627553207148882 0.2703741711687209 0.0
  outer loop
    vertex 57.09216076566654 50.85223244560387 0.0
    vertex 57.233324409815765 51.3548915898139 2.000000000000005
    vertex 57.233324409815765 51.3548915898139 0.0
  endloop
endfacet
facet normal -0.3826834323650914 -0.9238795325112863 -0.0
  outer loop
    vertex 56.25370495677501 69.37173499058463 2.000000000000005
    vertex 55.77134304698005 69.57153583559389 0.0
    vertex 56.25370495677501 69.37173499058463 0.0
  endloop
endfacet
facet normal -0.3826834323650914 -0.9238795325112863 -0.0
  outer loop
    vertex 55.77134304698005 69.57153583559389 0.0
    vertex 56.25370495677501 69.37173499058463 2.000000000000005
    vertex 55.77134304698005 69.57153583559389 2.000000000000005
  endloop
endfacet
facet normal 0.27037417116871915 0.9627553207148888 0.0
  outer loop
    vertex 54.46625321936313 49.80122837412422 2.000000000000005
    vertex 54.96891236357316 49.660064729975005 0.0
    vertex 54.46625321936313 49.80122837412422 0.0
  endloop
endfacet
facet normal 0.27037417116871915 0.9627553207148888 0.0
  outer loop
    vertex 54.96891236357316 49.660064729975005 0.0
    vertex 54.46625321936313 49.80122837412422 2.000000000000005
    vertex 54.96891236357316 49.660064729975005 2.000000000000005
  endloop
endfacet
facet normal 0.3826834323650867 0.9238795325112881 0.0
  outer loop
    vertex 54.253704956775 65.90763337544686 2.000000000000005
    vertex 54.73606686656997 65.70783253043761 0.0
    vertex 54.253704956775 65.90763337544686 0.0
  endloop
endfacet
facet normal 0.3826834323650867 0.9238795325112881 0.0
  outer loop
    vertex 54.73606686656997 65.70783253043761 0.0
    vertex 54.253704956775 65.90763337544686 2.000000000000005
    vertex 54.73606686656997 65.70783253043761 2.000000000000005
  endloop
endfacet
facet normal 0.13052619222005143 -0.9914448613738105 0.0
  outer loop
    vertex 55.25370495677502 69.63968418301575 2.000000000000005
    vertex 54.73606686656997 69.57153583559389 0.0
    vertex 55.25370495677502 69.63968418301575 0.0
  endloop
endfacet
facet normal 0.13052619222005143 -0.9914448613738105 0.0
  outer loop
    vertex 54.73606686656997 69.57153583559389 0.0
    vertex 55.25370495677502 69.63968418301575 2.000000000000005
    vertex 54.73606686656997 69.57153583559389 2.000000000000005
  endloop
endfacet
facet normal -0.9914448613738105 -0.13052619222005143 -0.0
  outer loop
    vertex 57.18555660935315 68.15732227322079 2.000000000000005
    vertex 57.25370495677501 67.63968418301576 0.0
    vertex 57.25370495677501 67.63968418301576 2.000000000000005
  endloop
endfacet
facet normal -0.9914448613738105 -0.13052619222005143 -0.0
  outer loop
    vertex 57.25370495677501 67.63968418301576 0.0
    vertex 57.18555660935315 68.15732227322079 2.000000000000005
    vertex 57.18555660935315 68.15732227322079 0.0
  endloop
endfacet
facet normal 0.8599722438734522 -0.5103408074681661 0.0
  outer loop
    vertex 53.68170051721678 52.87613153005857 0.0
    vertex 53.41524914788348 52.42713592042763 2.000000000000005
    vertex 53.41524914788348 52.42713592042763 0.0
  endloop
endfacet
facet normal 0.8599722438734522 -0.5103408074681661 0.0
  outer loop
    vertex 53.41524914788348 52.42713592042763 2.000000000000005
    vertex 53.68170051721678 52.87613153005857 0.0
    vertex 53.68170051721678 52.87613153005857 2.000000000000005
  endloop
endfacet
facet normal -0.5103408074681681 -0.8599722438734511 -0.0
  outer loop
    vertex 56.49015230381783 53.21168862257397 2.000000000000005
    vertex 56.04115669418689 53.478139991907284 0.0
    vertex 56.49015230381783 53.21168862257397 0.0
  endloop
endfacet
facet normal -0.5103408074681681 -0.8599722438734511 -0.0
  outer loop
    vertex 56.04115669418689 53.478139991907284 0.0
    vertex 56.49015230381783 53.21168862257397 2.000000000000005
    vertex 56.04115669418689 53.478139991907284 2.000000000000005
  endloop
endfacet
facet normal 0.9238795325112871 0.38268343236508895 0.0
  outer loop
    vertex 53.32185330419687 67.1220460928107 0.0
    vertex 53.521654149206135 66.63968418301575 2.000000000000005
    vertex 53.521654149206135 66.63968418301575 0.0
  endloop
endfacet
facet normal 0.9238795325112871 0.38268343236508895 0.0
  outer loop
    vertex 53.521654149206135 66.63968418301575 2.000000000000005
    vertex 53.32185330419687 67.1220460928107 0.0
    vertex 53.32185330419687 67.1220460928107 2.000000000000005
  endloop
endfacet
facet normal -0.7933533402912326 -0.6087614290087239 -0.0
  outer loop
    vertex 56.6679185191481 69.05389774538884 2.000000000000005
    vertex 56.985755764343885 68.63968418301575 0.0
    vertex 56.985755764343885 68.63968418301575 2.000000000000005
  endloop
endfacet
facet normal -0.7933533402912326 -0.6087614290087239 -0.0
  outer loop
    vertex 56.985755764343885 68.63968418301575 0.0
    vertex 56.6679185191481 69.05389774538884 2.000000000000005
    vertex 56.6679185191481 69.05389774538884 0.0
  endloop
endfacet
facet normal -0.6087614290087201 0.7933533402912358 0.0
  outer loop
    vertex 56.25370495677501 65.90763337544686 2.000000000000005
    vertex 56.6679185191481 66.22547062064265 0.0
    vertex 56.25370495677501 65.90763337544686 0.0
  endloop
endfacet
facet normal -0.6087614290087201 0.7933533402912358 0.0
  outer loop
    vertex 56.6679185191481 66.22547062064265 0.0
    vertex 56.25370495677501 65.90763337544686 2.000000000000005
    vertex 56.6679185191481 66.22547062064265 2.000000000000005
  endloop
endfacet
facet normal 0.3826834323650914 -0.9238795325112863 0.0
  outer loop
    vertex 54.73606686656997 69.57153583559389 2.000000000000005
    vertex 54.253704956775 69.37173499058463 0.0
    vertex 54.73606686656997 69.57153583559389 0.0
  endloop
endfacet
facet normal 0.3826834323650914 -0.9238795325112863 0.0
  outer loop
    vertex 54.253704956775 69.37173499058463 0.0
    vertex 54.73606686656997 69.57153583559389 2.000000000000005
    vertex 54.253704956775 69.37173499058463 2.000000000000005
  endloop
endfacet
facet normal 0.5103408074681681 0.8599722438734511 0.0
  outer loop
    vertex 54.01725760973219 50.067679743457525 2.000000000000005
    vertex 54.46625321936313 49.80122837412422 0.0
    vertex 54.01725760973219 50.067679743457525 0.0
  endloop
endfacet
facet normal 0.5103408074681681 0.8599722438734511 0.0
  outer loop
    vertex 54.46625321936313 49.80122837412422 0.0
    vertex 54.01725760973219 50.067679743457525 2.000000000000005
    vertex 54.46625321936313 49.80122837412422 2.000000000000005
  endloop
endfacet
facet normal 0.489587406009832 -0.8719542257920216 0.0
  outer loop
    vertex 54.51053285077708 53.496481215775816 2.000000000000005
    vertex 54.05528139124581 53.2408652963144 0.0
    vertex 54.51053285077708 53.496481215775816 0.0
  endloop
endfacet
facet normal 0.489587406009832 -0.8719542257920216 0.0
  outer loop
    vertex 54.05528139124581 53.2408652963144 0.0
    vertex 54.51053285077708 53.496481215775816 2.000000000000005
    vertex 54.05528139124581 53.2408652963144 2.000000000000005
  endloop
endfacet
facet normal -0.9914448613738105 0.13052619222005143 0.0
  outer loop
    vertex 57.25370495677501 67.63968418301576 2.000000000000005
    vertex 57.18555660935315 67.1220460928107 0.0
    vertex 57.18555660935315 67.1220460928107 2.000000000000005
  endloop
endfacet
facet normal -0.9914448613738105 0.13052619222005143 0.0
  outer loop
    vertex 57.18555660935315 67.1220460928107 0.0
    vertex 57.25370495677501 67.63968418301576 2.000000000000005
    vertex 57.25370495677501 67.63968418301576 0.0
  endloop
endfacet
facet normal 0.24722675959817125 -0.968957650952088 0.0
  outer loop
    vertex 55.01643026118213 53.62555948595682 2.000000000000005
    vertex 54.51053285077708 53.496481215775816 0.0
    vertex 55.01643026118213 53.62555948595682 0.0
  endloop
endfacet
facet normal 0.24722675959817125 -0.968957650952088 0.0
  outer loop
    vertex 54.51053285077708 53.496481215775816 0.0
    vertex 55.01643026118213 53.62555948595682 2.000000000000005
    vertex 54.51053285077708 53.496481215775816 2.000000000000005
  endloop
endfacet
facet normal 0.6087614290087213 0.7933533402912347 0.0
  outer loop
    vertex 53.83949139440192 66.22547062064265 2.000000000000005
    vertex 54.253704956775 65.90763337544686 0.0
    vertex 53.83949139440192 66.22547062064265 0.0
  endloop
endfacet
facet normal 0.6087614290087213 0.7933533402912347 0.0
  outer loop
    vertex 54.253704956775 65.90763337544686 0.0
    vertex 53.83949139440192 66.22547062064265 2.000000000000005
    vertex 54.253704956775 65.90763337544686 2.000000000000005
  endloop
endfacet
facet normal -0.3826834323650867 0.9238795325112881 0.0
  outer loop
    vertex 55.77134304698005 65.70783253043761 2.000000000000005
    vertex 56.25370495677501 65.90763337544686 0.0
    vertex 55.77134304698005 65.70783253043761 0.0
  endloop
endfacet
facet normal -0.3826834323650867 0.9238795325112881 0.0
  outer loop
    vertex 56.25370495677501 65.90763337544686 0.0
    vertex 55.77134304698005 65.70783253043761 2.000000000000005
    vertex 56.25370495677501 65.90763337544686 2.000000000000005
  endloop
endfacet
facet normal 0.9914448613738105 0.13052619222005143 0.0
  outer loop
    vertex 53.25370495677501 67.63968418301576 0.0
    vertex 53.32185330419687 67.1220460928107 2.000000000000005
    vertex 53.32185330419687 67.1220460928107 0.0
  endloop
endfacet
facet normal 0.9914448613738105 0.13052619222005143 0.0
  outer loop
    vertex 53.32185330419687 67.1220460928107 2.000000000000005
    vertex 53.25370495677501 67.63968418301576 0.0
    vertex 53.25370495677501 67.63968418301576 2.000000000000005
  endloop
endfacet
facet normal -0.8599722438734522 0.5103408074681661 0.0
  outer loop
    vertex 57.09216076566654 50.85223244560387 2.000000000000005
    vertex 56.82570939633323 50.40323683597293 0.0
    vertex 56.82570939633323 50.40323683597293 2.000000000000005
  endloop
endfacet
facet normal -0.8599722438734522 0.5103408074681661 0.0
  outer loop
    vertex 56.82570939633323 50.40323683597293 0.0
    vertex 57.09216076566654 50.85223244560387 2.000000000000005
    vertex 57.09216076566654 50.85223244560387 0.0
  endloop
endfacet
facet normal -0.698583479783368 0.7155285611167179 0.0
  outer loop
    vertex 56.45212852230421 50.0385030697171 2.000000000000005
    vertex 56.82570939633323 50.40323683597293 0.0
    vertex 56.45212852230421 50.0385030697171 0.0
  endloop
endfacet
facet normal -0.698583479783368 0.7155285611167179 0.0
  outer loop
    vertex 56.82570939633323 50.40323683597293 0.0
    vertex 56.45212852230421 50.0385030697171 2.000000000000005
    vertex 56.82570939633323 50.40323683597293 2.000000000000005
  endloop
endfacet
facet normal -5.416951541636434e-18 -5.285631504263427e-18 1.0
  outer loop
    vertex 45.25370495677501 43.63968418301575 2.0000000000000053
    vertex 53.39690792401495 50.89651207701782 2.000000000000005
    vertex 45.25370495677501 75.63968418301575 2.000000000000005
  endloop
endfacet
facet normal -5.416951541636434e-18 -5.285631504263427e-18 1.0
  outer loop
    vertex 53.39690792401495 50.89651207701782 2.000000000000005
    vertex 45.25370495677501 43.63968418301575 2.0000000000000053
    vertex 53.65252384347637 50.441260617486556 2.000000000000005
  endloop
endfacet
facet normal -5.416951541636434e-18 -5.285631504263427e-18 1.0
  outer loop
    vertex 53.65252384347637 50.441260617486556 2.000000000000005
    vertex 45.25370495677501 43.63968418301575 2.0000000000000053
    vertex 54.01725760973219 50.067679743457525 2.000000000000005
  endloop
endfacet
facet normal -5.416951541636434e-18 -5.285631504263427e-18 1.0
  outer loop
    vertex 54.01725760973219 50.067679743457525 2.000000000000005
    vertex 45.25370495677501 43.63968418301575 2.0000000000000053
    vertex 54.46625321936313 49.80122837412422 2.000000000000005
  endloop
endfacet
facet normal -5.416951541636434e-18 -5.285631504263427e-18 1.0
  outer loop
    vertex 54.46625321936313 49.80122837412422 2.000000000000005
    vertex 45.25370495677501 43.63968418301575 2.0000000000000053
    vertex 73.25370495677501 43.63968418301575 2.000000000000005
  endloop
endfacet
facet normal -5.416951541636434e-18 -5.285631504263427e-18 1.0
  outer loop
    vertex 45.25370495677501 75.63968418301575 2.000000000000005
    vertex 53.39690792401495 50.89651207701782 2.000000000000005
    vertex 53.267829653833935 51.402409487422865 2.000000000000005
  endloop
endfacet
facet normal -5.416951541636434e-18 -5.285631504263427e-18 1.0
  outer loop
    vertex 45.25370495677501 75.63968418301575 2.000000000000005
    vertex 53.267829653833935 51.402409487422865 2.000000000000005
    vertex 53.25370495677501 67.63968418301576 2.000000000000005
  endloop
endfacet
facet normal -5.416951541636434e-18 -5.285631504263427e-18 1.0
  outer loop
    vertex 54.46625321936313 49.80122837412422 2.000000000000005
    vertex 73.25370495677501 43.63968418301575 2.000000000000005
    vertex 54.96891236357316 49.660064729975005 2.000000000000005
  endloop
endfacet
facet normal -5.416951541636434e-18 -5.285631504263427e-18 1.0
  outer loop
    vertex 54.96891236357316 49.660064729975005 2.000000000000005
    vertex 73.25370495677501 43.63968418301575 2.000000000000005
    vertex 55.49097965236789 49.65380888007468 2.000000000000005
  endloop
endfacet
facet normal -5.416951541636434e-18 -5.285631504263427e-18 1.0
  outer loop
    vertex 55.49097965236789 49.65380888007468 2.000000000000005
    vertex 73.25370495677501 43.63968418301575 2.000000000000005
    vertex 55.99687706277294 49.78288715025568 2.000000000000005
  endloop
endfacet
facet normal -5.416951541636434e-18 -5.285631504263427e-18 1.0
  outer loop
    vertex 55.99687706277294 49.78288715025568 2.000000000000005
    vertex 73.25370495677501 43.63968418301575 2.000000000000005
    vertex 56.45212852230421 50.0385030697171 2.000000000000005
  endloop
endfacet
facet normal -5.416951541636434e-18 -5.285631504263427e-18 1.0
  outer loop
    vertex 56.45212852230421 50.0385030697171 2.000000000000005
    vertex 73.25370495677501 43.63968418301575 2.000000000000005
    vertex 56.82570939633323 50.40323683597293 2.000000000000005
  endloop
endfacet
facet normal -5.416951541636434e-18 -5.285631504263427e-18 1.0
  outer loop
    vertex 56.82570939633323 50.40323683597293 2.000000000000005
    vertex 73.25370495677501 43.63968418301575 2.000000000000005
    vertex 57.09216076566654 50.85223244560387 2.000000000000005
  endloop
endfacet
facet normal -5.416951541636434e-18 -5.285631504263427e-18 1.0
  outer loop
    vertex 57.09216076566654 50.85223244560387 2.000000000000005
    vertex 73.25370495677501 43.63968418301575 2.000000000000005
    vertex 57.233324409815765 51.3548915898139 2.000000000000005
  endloop
endfacet
facet normal -5.416951541636434e-18 -5.285631504263427e-18 1.0
  outer loop
    vertex 57.233324409815765 51.3548915898139 2.000000000000005
    vertex 73.25370495677501 43.63968418301575 2.000000000000005
    vertex 57.239580259716085 51.87695887860863 2.000000000000005
  endloop
endfacet
facet normal -5.416951541636434e-18 -5.285631504263427e-18 1.0
  outer loop
    vertex 57.239580259716085 51.87695887860863 2.000000000000005
    vertex 73.25370495677501 43.63968418301575 2.000000000000005
    vertex 57.25370495677501 67.63968418301576 2.000000000000005
  endloop
endfacet
facet normal -5.416951541636434e-18 -5.285631504263427e-18 1.0
  outer loop
    vertex 45.25370495677501 75.63968418301575 2.000000000000005
    vertex 54.73606686656997 69.57153583559389 2.000000000000005
    vertex 73.25370495677501 75.63968418301575 2.0000000000000053
  endloop
endfacet
facet normal -5.416951541636434e-18 -5.285631504263427e-18 1.0
  outer loop
    vertex 54.73606686656997 69.57153583559389 2.000000000000005
    vertex 45.25370495677501 75.63968418301575 2.000000000000005
    vertex 54.253704956775 69.37173499058463 2.000000000000005
  endloop
endfacet
facet normal -5.416951541636434e-18 -5.285631504263427e-18 1.0
  outer loop
    vertex 54.253704956775 69.37173499058463 2.000000000000005
    vertex 45.25370495677501 75.63968418301575 2.000000000000005
    vertex 53.83949139440192 69.05389774538884 2.000000000000005
  endloop
endfacet
facet normal -5.416951541636434e-18 -5.285631504263427e-18 1.0
  outer loop
    vertex 53.83949139440192 69.05389774538884 2.000000000000005
    vertex 45.25370495677501 75.63968418301575 2.000000000000005
    vertex 53.52165414920613 68.63968418301575 2.000000000000005
  endloop
endfacet
facet normal -5.416951541636434e-18 -5.285631504263427e-18 1.0
  outer loop
    vertex 53.52165414920613 68.63968418301575 2.000000000000005
    vertex 45.25370495677501 75.63968418301575 2.000000000000005
    vertex 53.32185330419687 68.15732227322079 2.000000000000005
  endloop
endfacet
facet normal -5.416951541636434e-18 -5.285631504263427e-18 1.0
  outer loop
    vertex 53.32185330419687 68.15732227322079 2.000000000000005
    vertex 45.25370495677501 75.63968418301575 2.000000000000005
    vertex 53.25370495677501 67.63968418301576 2.000000000000005
  endloop
endfacet
facet normal -5.416951541636434e-18 -5.285631504263427e-18 1.0
  outer loop
    vertex 73.25370495677501 75.63968418301575 2.0000000000000053
    vertex 54.73606686656997 69.57153583559389 2.000000000000005
    vertex 55.25370495677502 69.63968418301575 2.000000000000005
  endloop
endfacet
facet normal -5.416951541636434e-18 -5.285631504263427e-18 1.0
  outer loop
    vertex 73.25370495677501 75.63968418301575 2.0000000000000053
    vertex 55.25370495677502 69.63968418301575 2.000000000000005
    vertex 55.77134304698005 69.57153583559389 2.000000000000005
  endloop
endfacet
facet normal -5.416951541636434e-18 -5.285631504263427e-18 1.0
  outer loop
    vertex 73.25370495677501 75.63968418301575 2.0000000000000053
    vertex 55.77134304698005 69.57153583559389 2.000000000000005
    vertex 56.25370495677501 69.37173499058463 2.000000000000005
  endloop
endfacet
facet normal -5.416951541636434e-18 -5.285631504263427e-18 1.0
  outer loop
    vertex 73.25370495677501 75.63968418301575 2.0000000000000053
    vertex 56.25370495677501 69.37173499058463 2.000000000000005
    vertex 56.6679185191481 69.05389774538884 2.000000000000005
  endloop
endfacet
facet normal -5.416951541636434e-18 -5.285631504263427e-18 1.0
  outer loop
    vertex 73.25370495677501 75.63968418301575 2.0000000000000053
    vertex 56.6679185191481 69.05389774538884 2.000000000000005
    vertex 56.985755764343885 68.63968418301575 2.000000000000005
  endloop
endfacet
facet normal -5.416951541636434e-18 -5.285631504263427e-18 1.0
  outer loop
    vertex 73.25370495677501 75.63968418301575 2.0000000000000053
    vertex 56.985755764343885 68.63968418301575 2.000000000000005
    vertex 57.18555660935315 68.15732227322079 2.000000000000005
  endloop
endfacet
facet normal -5.416951541636434e-18 -5.285631504263427e-18 1.0
  outer loop
    vertex 73.25370495677501 75.63968418301575 2.0000000000000053
    vertex 57.18555660935315 68.15732227322079 2.000000000000005
    vertex 57.25370495677501 67.63968418301576 2.000000000000005
  endloop
endfacet
facet normal -5.416951541636434e-18 -5.285631504263427e-18 1.0
  outer loop
    vertex 73.25370495677501 75.63968418301575 2.0000000000000053
    vertex 57.25370495677501 67.63968418301576 2.000000000000005
    vertex 73.25370495677501 43.63968418301575 2.000000000000005
  endloop
endfacet
facet normal -5.416951541636434e-18 -5.285631504263427e-18 1.0
  outer loop
    vertex 53.267829653833935 51.402409487422865 2.000000000000005
    vertex 53.32185330419687 67.1220460928107 2.000000000000005
    vertex 53.25370495677501 67.63968418301576 2.000000000000005
  endloop
endfacet
facet normal -5.416951541636434e-18 -5.285631504263427e-18 1.0
  outer loop
    vertex 53.32185330419687 67.1220460928107 2.000000000000005
    vertex 53.267829653833935 51.402409487422865 2.000000000000005
    vertex 53.274085503734256 51.924476776217595 2.000000000000005
  endloop
endfacet
facet normal -5.416951541636434e-18 -5.285631504263427e-18 1.0
  outer loop
    vertex 53.32185330419687 67.1220460928107 2.000000000000005
    vertex 53.274085503734256 51.924476776217595 2.000000000000005
    vertex 53.41524914788348 52.42713592042763 2.000000000000005
  endloop
endfacet
facet normal -5.416951541636434e-18 -5.285631504263427e-18 1.0
  outer loop
    vertex 53.32185330419687 67.1220460928107 2.000000000000005
    vertex 53.41524914788348 52.42713592042763 2.000000000000005
    vertex 53.521654149206135 66.63968418301575 2.000000000000005
  endloop
endfacet
facet normal -5.416951541636434e-18 -5.285631504263427e-18 1.0
  outer loop
    vertex 53.521654149206135 66.63968418301575 2.000000000000005
    vertex 53.41524914788348 52.42713592042763 2.000000000000005
    vertex 53.68170051721678 52.87613153005857 2.000000000000005
  endloop
endfacet
facet normal -5.416951541636434e-18 -5.285631504263427e-18 1.0
  outer loop
    vertex 53.521654149206135 66.63968418301575 2.000000000000005
    vertex 53.68170051721678 52.87613153005857 2.000000000000005
    vertex 53.83949139440192 66.22547062064265 2.000000000000005
  endloop
endfacet
facet normal -5.416951541636434e-18 -5.285631504263427e-18 1.0
  outer loop
    vertex 53.83949139440192 66.22547062064265 2.000000000000005
    vertex 53.68170051721678 52.87613153005857 2.000000000000005
    vertex 54.05528139124581 53.2408652963144 2.000000000000005
  endloop
endfacet
facet normal -5.416951541636434e-18 -5.285631504263427e-18 1.0
  outer loop
    vertex 53.83949139440192 66.22547062064265 2.000000000000005
    vertex 54.05528139124581 53.2408652963144 2.000000000000005
    vertex 54.253704956775 65.90763337544686 2.000000000000005
  endloop
endfacet
facet normal -5.416951541636434e-18 -5.285631504263427e-18 1.0
  outer loop
    vertex 54.253704956775 65.90763337544686 2.000000000000005
    vertex 54.05528139124581 53.2408652963144 2.000000000000005
    vertex 54.51053285077708 53.496481215775816 2.000000000000005
  endloop
endfacet
facet normal -5.416951541636434e-18 -5.285631504263427e-18 1.0
  outer loop
    vertex 54.253704956775 65.90763337544686 2.000000000000005
    vertex 54.51053285077708 53.496481215775816 2.000000000000005
    vertex 54.73606686656997 65.70783253043761 2.000000000000005
  endloop
endfacet
facet normal -5.416951541636434e-18 -5.285631504263427e-18 1.0
  outer loop
    vertex 54.73606686656997 65.70783253043761 2.000000000000005
    vertex 54.51053285077708 53.496481215775816 2.000000000000005
    vertex 55.01643026118213 53.62555948595682 2.000000000000005
  endloop
endfacet
facet normal -5.416951541636434e-18 -5.285631504263427e-18 1.0
  outer loop
    vertex 54.73606686656997 65.70783253043761 2.000000000000005
    vertex 55.01643026118213 53.62555948595682 2.000000000000005
    vertex 55.25370495677502 65.63968418301575 2.000000000000005
  endloop
endfacet
facet normal -5.416951541636434e-18 -5.285631504263427e-18 1.0
  outer loop
    vertex 55.25370495677502 65.63968418301575 2.000000000000005
    vertex 55.01643026118213 53.62555948595682 2.000000000000005
    vertex 55.538497549976846 53.61930363605651 2.000000000000005
  endloop
endfacet
facet normal -5.416951541636434e-18 -5.285631504263427e-18 1.0
  outer loop
    vertex 55.25370495677502 65.63968418301575 2.000000000000005
    vertex 55.538497549976846 53.61930363605651 2.000000000000005
    vertex 55.77134304698005 65.70783253043761 2.000000000000005
  endloop
endfacet
facet normal -5.416951541636434e-18 -5.285631504263427e-18 1.0
  outer loop
    vertex 55.77134304698005 65.70783253043761 2.000000000000005
    vertex 55.538497549976846 53.61930363605651 2.000000000000005
    vertex 56.04115669418689 53.478139991907284 2.000000000000005
  endloop
endfacet
facet normal -5.416951541636434e-18 -5.285631504263427e-18 1.0
  outer loop
    vertex 55.77134304698005 65.70783253043761 2.000000000000005
    vertex 56.04115669418689 53.478139991907284 2.000000000000005
    vertex 56.25370495677501 65.90763337544686 2.000000000000005
  endloop
endfacet
facet normal -5.416951541636434e-18 -5.285631504263427e-18 1.0
  outer loop
    vertex 56.25370495677501 65.90763337544686 2.000000000000005
    vertex 56.04115669418689 53.478139991907284 2.000000000000005
    vertex 56.49015230381783 53.21168862257397 2.000000000000005
  endloop
endfacet
facet normal -5.416951541636434e-18 -5.285631504263427e-18 1.0
  outer loop
    vertex 56.25370495677501 65.90763337544686 2.000000000000005
    vertex 56.49015230381783 53.21168862257397 2.000000000000005
    vertex 56.6679185191481 66.22547062064265 2.000000000000005
  endloop
endfacet
facet normal -5.416951541636434e-18 -5.285631504263427e-18 1.0
  outer loop
    vertex 56.6679185191481 66.22547062064265 2.000000000000005
    vertex 56.49015230381783 53.21168862257397 2.000000000000005
    vertex 56.854886070073654 52.83810774854495 2.000000000000005
  endloop
endfacet
facet normal -5.416951541636434e-18 -5.285631504263427e-18 1.0
  outer loop
    vertex 56.6679185191481 66.22547062064265 2.000000000000005
    vertex 56.854886070073654 52.83810774854495 2.000000000000005
    vertex 56.985755764343885 66.63968418301575 2.000000000000005
  endloop
endfacet
facet normal -5.416951541636434e-18 -5.285631504263427e-18 1.0
  outer loop
    vertex 56.985755764343885 66.63968418301575 2.000000000000005
    vertex 56.854886070073654 52.83810774854495 2.000000000000005
    vertex 57.11050198953509 52.38285628901368 2.000000000000005
  endloop
endfacet
facet normal -5.416951541636434e-18 -5.285631504263427e-18 1.0
  outer loop
    vertex 56.985755764343885 66.63968418301575 2.000000000000005
    vertex 57.11050198953509 52.38285628901368 2.000000000000005
    vertex 57.18555660935315 67.1220460928107 2.000000000000005
  endloop
endfacet
facet normal -5.416951541636434e-18 -5.285631504263427e-18 1.0
  outer loop
    vertex 57.18555660935315 67.1220460928107 2.000000000000005
    vertex 57.11050198953509 52.38285628901368 2.000000000000005
    vertex 57.239580259716085 51.87695887860863 2.000000000000005
  endloop
endfacet
facet normal -5.416951541636434e-18 -5.285631504263427e-18 1.0
  outer loop
    vertex 57.18555660935315 67.1220460928107 2.000000000000005
    vertex 57.239580259716085 51.87695887860863 2.000000000000005
    vertex 57.25370495677501 67.63968418301576 2.000000000000005
  endloop
endfacet
endsolid switchbracket3
