solid viv-handle2
facet normal -4.9386193419521904e-17 1.0 6.295912442249229e-18
  outer loop
    vertex 1.5 2.1999999999999993 5.000000000000002
    vertex 30.629798999999995 2.200000000000001 1.9999999999999991
    vertex 1.5 2.1999999999999993 1.9999999999999991
  endloop
endfacet
facet normal -4.9386193419521904e-17 1.0 6.295912442249229e-18
  outer loop
    vertex 30.629798999999995 2.200000000000001 1.9999999999999991
    vertex 1.5 2.1999999999999993 5.000000000000002
    vertex 30.629798999999995 2.200000000000001 5.000000000000002
  endloop
endfacet
facet normal -1.0 -4.496120029572539e-18 0.0
  outer loop
    vertex -15.499999999999996 26.1 0.0
    vertex -15.499999999999996 6.499999999999999 -21.0
    vertex -15.499999999999996 6.499999999999999 0.0
  endloop
endfacet
facet normal -1.0 -4.496120029572539e-18 0.0
  outer loop
    vertex -15.499999999999996 6.499999999999999 -21.0
    vertex -15.499999999999996 26.1 0.0
    vertex -15.499999999999996 26.1 -21.0
  endloop
endfacet
facet normal 0.0 0.0 -1.0
  outer loop
    vertex -3.499999999999999 26.1 -21.0
    vertex -15.499999999999996 6.499999999999999 -21.0
    vertex -15.499999999999996 26.1 -21.0
  endloop
endfacet
facet normal 0.0 0.0 -1.0
  outer loop
    vertex -15.499999999999996 6.499999999999999 -21.0
    vertex -3.499999999999999 26.1 -21.0
    vertex -3.499999999999999 6.499999999999999 -21.0
  endloop
endfacet
facet normal -0.0 -1.0 -0.0
  outer loop
    vertex 33.3 6.499999999999999 0.0
    vertex -3.499999999999999 6.499999999999999 -11.0
    vertex 33.3 6.499999999999999 -11.0
  endloop
endfacet
facet normal -0.0 -1.0 -0.0
  outer loop
    vertex -3.499999999999999 6.499999999999999 -11.0
    vertex -15.499999999999996 6.499999999999999 -21.0
    vertex -3.499999999999999 6.499999999999999 -21.0
  endloop
endfacet
facet normal -0.0 -1.0 -0.0
  outer loop
    vertex -15.499999999999996 6.499999999999999 -21.0
    vertex -3.499999999999999 6.499999999999999 -11.0
    vertex -15.499999999999996 6.499999999999999 0.0
  endloop
endfacet
facet normal -0.0 -1.0 -0.0
  outer loop
    vertex -15.499999999999996 6.499999999999999 0.0
    vertex -3.499999999999999 6.499999999999999 -11.0
    vertex 33.3 6.499999999999999 0.0
  endloop
endfacet
facet normal -0.0 -1.0 -0.0
  outer loop
    vertex -15.499999999999996 6.499999999999999 0.0
    vertex 33.3 6.499999999999999 0.0
    vertex -0.49999999999999906 6.499999999999999 0.0
  endloop
endfacet
facet normal 0.0 1.0 0.0
  outer loop
    vertex -15.499999999999996 26.1 0.0
    vertex -3.499999999999999 26.1 -21.0
    vertex -15.499999999999996 26.1 -21.0
  endloop
endfacet
facet normal 0.0 1.0 0.0
  outer loop
    vertex -3.499999999999999 26.1 -21.0
    vertex -15.499999999999996 26.1 0.0
    vertex -3.499999999999999 26.1 -11.0
  endloop
endfacet
facet normal 0.0 1.0 0.0
  outer loop
    vertex -3.499999999999999 26.1 -11.0
    vertex -15.499999999999996 26.1 0.0
    vertex 33.3 26.1 -11.0
  endloop
endfacet
facet normal 0.0 1.0 0.0
  outer loop
    vertex 33.3 26.1 -11.0
    vertex -15.499999999999996 26.1 0.0
    vertex 33.3 26.1 0.0
  endloop
endfacet
facet normal 0.0 1.0 0.0
  outer loop
    vertex 33.3 26.1 0.0
    vertex -15.499999999999996 26.1 0.0
    vertex -0.49999999999999906 26.1 0.0
  endloop
endfacet
facet normal -1.0 -6.537385206203397e-19 -4.8468173918791986e-17
  outer loop
    vertex -0.49999999999999906 33.1 5.000000000000002
    vertex -0.49999999999999906 -0.49999999999999994 0.0
    vertex -0.49999999999999906 -0.49999999999999994 5.000000000000002
  endloop
endfacet
facet normal -1.0 -6.537385206203397e-19 -4.8468173918791986e-17
  outer loop
    vertex -0.49999999999999906 -0.49999999999999994 0.0
    vertex -0.49999999999999906 33.1 5.000000000000002
    vertex -0.49999999999999906 6.499999999999999 0.0
  endloop
endfacet
facet normal -1.0 -6.537385206203397e-19 -4.8468173918791986e-17
  outer loop
    vertex -0.49999999999999906 6.499999999999999 0.0
    vertex -0.49999999999999906 33.1 5.000000000000002
    vertex -0.49999999999999906 26.1 0.0
  endloop
endfacet
facet normal -1.0 -6.537385206203397e-19 -4.8468173918791986e-17
  outer loop
    vertex -0.49999999999999906 26.1 0.0
    vertex -0.49999999999999906 33.1 5.000000000000002
    vertex -0.49999999999999906 33.1 0.0
  endloop
endfacet
facet normal 0.0 0.0 1.0
  outer loop
    vertex -0.49999999999999906 6.499999999999999 0.0
    vertex -15.499999999999996 26.1 0.0
    vertex -15.499999999999996 6.499999999999999 0.0
  endloop
endfacet
facet normal 0.0 0.0 1.0
  outer loop
    vertex -15.499999999999996 26.1 0.0
    vertex -0.49999999999999906 6.499999999999999 0.0
    vertex -0.49999999999999906 26.1 0.0
  endloop
endfacet
facet normal 0.0 0.0 -1.0
  outer loop
    vertex 30.629798999999995 31.099999999999998 1.9999999999999991
    vertex 1.5 2.1999999999999993 1.9999999999999991
    vertex 1.5 31.099999999999998 1.9999999999999991
  endloop
endfacet
facet normal 0.0 0.0 -1.0
  outer loop
    vertex 1.5 2.1999999999999993 1.9999999999999991
    vertex 30.629798999999995 31.099999999999998 1.9999999999999991
    vertex 30.629798999999995 2.200000000000001 1.9999999999999991
  endloop
endfacet
facet normal 0.0 0.0 -1.0
  outer loop
    vertex 33.3 33.1 0.0
    vertex -0.49999999999999906 26.1 0.0
    vertex -0.49999999999999906 33.1 0.0
  endloop
endfacet
facet normal 0.0 0.0 -1.0
  outer loop
    vertex -0.49999999999999906 26.1 0.0
    vertex 33.3 33.1 0.0
    vertex 33.3 26.1 0.0
  endloop
endfacet
facet normal 1.0 -1.2466903304447511e-17 9.301757669547633e-33
  outer loop
    vertex 1.5 31.099999999999998 1.9999999999999991
    vertex 1.5 2.1999999999999993 5.000000000000002
    vertex 1.5 2.1999999999999993 1.9999999999999991
  endloop
endfacet
facet normal 1.0 -1.2466903304447511e-17 9.301757669547633e-33
  outer loop
    vertex 1.5 2.1999999999999993 5.000000000000002
    vertex 1.5 31.099999999999998 1.9999999999999991
    vertex 1.5 31.099999999999998 5.000000000000002
  endloop
endfacet
facet normal 0.0 0.0 1.0
  outer loop
    vertex -0.49999999999999906 -0.49999999999999994 5.000000000000002
    vertex 1.5 2.1999999999999993 5.000000000000002
    vertex -0.49999999999999906 33.1 5.000000000000002
  endloop
endfacet
facet normal 0.0 0.0 1.0
  outer loop
    vertex 1.5 2.1999999999999993 5.000000000000002
    vertex -0.49999999999999906 -0.49999999999999994 5.000000000000002
    vertex 33.3 -0.49999999999999994 5.000000000000002
  endloop
endfacet
facet normal 0.0 0.0 1.0
  outer loop
    vertex 1.5 2.1999999999999993 5.000000000000002
    vertex 33.3 -0.49999999999999994 5.000000000000002
    vertex 30.629798999999995 2.200000000000001 5.000000000000002
  endloop
endfacet
facet normal 0.0 0.0 1.0
  outer loop
    vertex 30.629798999999995 2.200000000000001 5.000000000000002
    vertex 33.3 -0.49999999999999994 5.000000000000002
    vertex 30.629798999999995 31.099999999999998 5.000000000000002
  endloop
endfacet
facet normal 0.0 0.0 1.0
  outer loop
    vertex -0.49999999999999906 33.1 5.000000000000002
    vertex 1.5 31.099999999999998 5.000000000000002
    vertex 33.3 33.1 5.000000000000002
  endloop
endfacet
facet normal 0.0 0.0 1.0
  outer loop
    vertex 1.5 31.099999999999998 5.000000000000002
    vertex -0.49999999999999906 33.1 5.000000000000002
    vertex 1.5 2.1999999999999993 5.000000000000002
  endloop
endfacet
facet normal 0.0 0.0 1.0
  outer loop
    vertex 33.3 33.1 5.000000000000002
    vertex 1.5 31.099999999999998 5.000000000000002
    vertex 30.629798999999995 31.099999999999998 5.000000000000002
  endloop
endfacet
facet normal 0.0 0.0 1.0
  outer loop
    vertex 33.3 33.1 5.000000000000002
    vertex 30.629798999999995 31.099999999999998 5.000000000000002
    vertex 33.3 -0.49999999999999994 5.000000000000002
  endloop
endfacet
facet normal 1.0 0.0 0.0
  outer loop
    vertex 33.3 26.1 -11.0
    vertex 33.3 6.499999999999999 0.0
    vertex 33.3 6.499999999999999 -11.0
  endloop
endfacet
facet normal 1.0 0.0 0.0
  outer loop
    vertex 33.3 6.499999999999999 0.0
    vertex 33.3 -0.49999999999999994 5.000000000000002
    vertex 33.3 -0.49999999999999994 0.0
  endloop
endfacet
facet normal 1.0 0.0 0.0
  outer loop
    vertex 33.3 -0.49999999999999994 5.000000000000002
    vertex 33.3 6.499999999999999 0.0
    vertex 33.3 33.1 5.000000000000002
  endloop
endfacet
facet normal 1.0 0.0 0.0
  outer loop
    vertex 33.3 33.1 5.000000000000002
    vertex 33.3 6.499999999999999 0.0
    vertex 33.3 26.1 0.0
  endloop
endfacet
facet normal 1.0 0.0 0.0
  outer loop
    vertex 33.3 26.1 0.0
    vertex 33.3 6.499999999999999 0.0
    vertex 33.3 26.1 -11.0
  endloop
endfacet
facet normal 1.0 0.0 0.0
  outer loop
    vertex 33.3 33.1 5.000000000000002
    vertex 33.3 26.1 0.0
    vertex 33.3 33.1 0.0
  endloop
endfacet
facet normal -0.0 -1.0 -0.0
  outer loop
    vertex 33.3 -0.49999999999999994 5.000000000000002
    vertex -0.49999999999999906 -0.49999999999999994 0.0
    vertex 33.3 -0.49999999999999994 0.0
  endloop
endfacet
facet normal -0.0 -1.0 -0.0
  outer loop
    vertex -0.49999999999999906 -0.49999999999999994 0.0
    vertex 33.3 -0.49999999999999994 5.000000000000002
    vertex -0.49999999999999906 -0.49999999999999994 5.000000000000002
  endloop
endfacet
facet normal 0.0 -1.0 0.0
  outer loop
    vertex 30.629798999999995 31.099999999999998 5.000000000000002
    vertex 1.5 31.099999999999998 1.9999999999999991
    vertex 30.629798999999995 31.099999999999998 1.9999999999999991
  endloop
endfacet
facet normal 0.0 -1.0 0.0
  outer loop
    vertex 1.5 31.099999999999998 1.9999999999999991
    vertex 30.629798999999995 31.099999999999998 5.000000000000002
    vertex 1.5 31.099999999999998 5.000000000000002
  endloop
endfacet
facet normal 0.0 1.0 0.0
  outer loop
    vertex -0.49999999999999906 33.1 5.000000000000002
    vertex 33.3 33.1 0.0
    vertex -0.49999999999999906 33.1 0.0
  endloop
endfacet
facet normal 0.0 1.0 0.0
  outer loop
    vertex 33.3 33.1 0.0
    vertex -0.49999999999999906 33.1 5.000000000000002
    vertex 33.3 33.1 5.000000000000002
  endloop
endfacet
facet normal -1.0 0.0 0.0
  outer loop
    vertex 30.629798999999995 31.099999999999998 5.000000000000002
    vertex 30.629798999999995 2.200000000000001 1.9999999999999991
    vertex 30.629798999999995 2.200000000000001 5.000000000000002
  endloop
endfacet
facet normal -1.0 0.0 0.0
  outer loop
    vertex 30.629798999999995 2.200000000000001 1.9999999999999991
    vertex 30.629798999999995 31.099999999999998 5.000000000000002
    vertex 30.629798999999995 31.099999999999998 1.9999999999999991
  endloop
endfacet
facet normal 0.0 0.0 -1.0
  outer loop
    vertex 33.3 6.499999999999999 0.0
    vertex -0.49999999999999906 -0.49999999999999994 0.0
    vertex -0.49999999999999906 6.499999999999999 0.0
  endloop
endfacet
facet normal 0.0 0.0 -1.0
  outer loop
    vertex -0.49999999999999906 -0.49999999999999994 0.0
    vertex 33.3 6.499999999999999 0.0
    vertex 33.3 -0.49999999999999994 0.0
  endloop
endfacet
facet normal 1.0 0.0 0.0
  outer loop
    vertex -3.499999999999999 26.1 -21.0
    vertex -3.499999999999999 6.499999999999999 -11.0
    vertex -3.499999999999999 6.499999999999999 -21.0
  endloop
endfacet
facet normal 1.0 0.0 0.0
  outer loop
    vertex -3.499999999999999 6.499999999999999 -11.0
    vertex -3.499999999999999 26.1 -21.0
    vertex -3.499999999999999 26.1 -11.0
  endloop
endfacet
facet normal 0.0 0.0 -1.0
  outer loop
    vertex 33.3 26.1 -11.0
    vertex -3.499999999999999 6.499999999999999 -11.0
    vertex -3.499999999999999 26.1 -11.0
  endloop
endfacet
facet normal 0.0 0.0 -1.0
  outer loop
    vertex -3.499999999999999 6.499999999999999 -11.0
    vertex 33.3 26.1 -11.0
    vertex 33.3 6.499999999999999 -11.0
  endloop
endfacet
endsolid viv-handle2
