solid viv-handle1
facet normal -1.0 0.0 0.0
  outer loop
    vertex -0.49999999999999906 26.1 0.0
    vertex -0.49999999999999906 6.500000000000001 -11.0
    vertex -0.49999999999999906 6.500000000000001 0.0
  endloop
endfacet
facet normal -1.0 0.0 0.0
  outer loop
    vertex -0.49999999999999906 6.500000000000001 -11.0
    vertex -0.49999999999999906 26.1 0.0
    vertex -0.49999999999999906 26.1 -11.0
  endloop
endfacet
facet normal 0.0 1.0 0.0
  outer loop
    vertex -0.49999999999999994 33.1 4.999999999999999
    vertex 33.3 33.1 0.0
    vertex -0.49999999999999994 33.1 0.0
  endloop
endfacet
facet normal 0.0 1.0 0.0
  outer loop
    vertex 33.3 33.1 0.0
    vertex -0.49999999999999994 33.1 4.999999999999999
    vertex 33.3 33.1 4.999999999999999
  endloop
endfacet
facet normal -1.0 0.0 0.0
  outer loop
    vertex 31.063819999999993 30.9 4.999999999999999
    vertex 31.063819999999993 1.5000000000000009 1.9999999999999991
    vertex 31.063819999999993 1.5000000000000009 4.999999999999999
  endloop
endfacet
facet normal -1.0 0.0 0.0
  outer loop
    vertex 31.063819999999993 1.5000000000000009 1.9999999999999991
    vertex 31.063819999999993 30.9 4.999999999999999
    vertex 31.063819999999993 30.9 1.9999999999999991
  endloop
endfacet
facet normal -5.261131497290853e-17 1.0 0.0
  outer loop
    vertex 1.4999999999999996 1.4999999999999996 4.999999999999999
    vertex 31.063819999999993 1.5000000000000009 1.9999999999999991
    vertex 1.4999999999999996 1.4999999999999996 1.9999999999999991
  endloop
endfacet
facet normal -5.261131497290853e-17 1.0 0.0
  outer loop
    vertex 31.063819999999993 1.5000000000000009 1.9999999999999991
    vertex 1.4999999999999996 1.4999999999999996 4.999999999999999
    vertex 31.063819999999993 1.5000000000000009 4.999999999999999
  endloop
endfacet
facet normal 1.0 -1.2466903304447511e-17 9.301757669547633e-33
  outer loop
    vertex 1.5 30.9 1.9999999999999991
    vertex 1.4999999999999996 1.4999999999999996 4.999999999999999
    vertex 1.4999999999999996 1.4999999999999996 1.9999999999999991
  endloop
endfacet
facet normal 1.0 -1.2466903304447511e-17 9.301757669547633e-33
  outer loop
    vertex 1.4999999999999996 1.4999999999999996 4.999999999999999
    vertex 1.5 30.9 1.9999999999999991
    vertex 1.5 30.9 4.999999999999999
  endloop
endfacet
facet normal 0.0 0.0 1.0
  outer loop
    vertex -0.49999999999999994 -0.49999999999999994 4.999999999999999
    vertex 1.4999999999999996 1.4999999999999996 4.999999999999999
    vertex -0.49999999999999994 33.1 4.999999999999999
  endloop
endfacet
facet normal 0.0 0.0 1.0
  outer loop
    vertex 1.4999999999999996 1.4999999999999996 4.999999999999999
    vertex -0.49999999999999994 -0.49999999999999994 4.999999999999999
    vertex 33.3 -0.49999999999999994 4.999999999999999
  endloop
endfacet
facet normal 0.0 0.0 1.0
  outer loop
    vertex 1.4999999999999996 1.4999999999999996 4.999999999999999
    vertex 33.3 -0.49999999999999994 4.999999999999999
    vertex 31.063819999999993 1.5000000000000009 4.999999999999999
  endloop
endfacet
facet normal 0.0 0.0 1.0
  outer loop
    vertex 31.063819999999993 1.5000000000000009 4.999999999999999
    vertex 33.3 -0.49999999999999994 4.999999999999999
    vertex 31.063819999999993 30.9 4.999999999999999
  endloop
endfacet
facet normal 0.0 0.0 1.0
  outer loop
    vertex -0.49999999999999994 33.1 4.999999999999999
    vertex 1.5 30.9 4.999999999999999
    vertex 33.3 33.1 4.999999999999999
  endloop
endfacet
facet normal 0.0 0.0 1.0
  outer loop
    vertex 1.5 30.9 4.999999999999999
    vertex -0.49999999999999994 33.1 4.999999999999999
    vertex 1.4999999999999996 1.4999999999999996 4.999999999999999
  endloop
endfacet
facet normal 0.0 0.0 1.0
  outer loop
    vertex 33.3 33.1 4.999999999999999
    vertex 1.5 30.9 4.999999999999999
    vertex 31.063819999999993 30.9 4.999999999999999
  endloop
endfacet
facet normal 0.0 0.0 1.0
  outer loop
    vertex 33.3 33.1 4.999999999999999
    vertex 31.063819999999993 30.9 4.999999999999999
    vertex 33.3 -0.49999999999999994 4.999999999999999
  endloop
endfacet
facet normal 0.0 -1.0 0.0
  outer loop
    vertex 31.063819999999993 30.9 4.999999999999999
    vertex 1.5 30.9 1.9999999999999991
    vertex 31.063819999999993 30.9 1.9999999999999991
  endloop
endfacet
facet normal 0.0 -1.0 0.0
  outer loop
    vertex 1.5 30.9 1.9999999999999991
    vertex 31.063819999999993 30.9 4.999999999999999
    vertex 1.5 30.9 4.999999999999999
  endloop
endfacet
facet normal -1.0 7.524574353060428e-34 -8.81239525796218e-17
  outer loop
    vertex -0.49999999999999994 33.1 4.999999999999999
    vertex -0.49999999999999994 -0.49999999999999994 0.0
    vertex -0.49999999999999994 -0.49999999999999994 4.999999999999999
  endloop
endfacet
facet normal -1.0 7.524574353060428e-34 -8.81239525796218e-17
  outer loop
    vertex -0.49999999999999994 -0.49999999999999994 0.0
    vertex -0.49999999999999994 33.1 4.999999999999999
    vertex -0.49999999999999906 6.500000000000001 0.0
  endloop
endfacet
facet normal -1.0 7.524574353060428e-34 -8.81239525796218e-17
  outer loop
    vertex -0.49999999999999906 6.500000000000001 0.0
    vertex -0.49999999999999994 33.1 4.999999999999999
    vertex -0.49999999999999906 26.1 0.0
  endloop
endfacet
facet normal -1.0 7.524574353060428e-34 -8.81239525796218e-17
  outer loop
    vertex -0.49999999999999906 26.1 0.0
    vertex -0.49999999999999994 33.1 4.999999999999999
    vertex -0.49999999999999994 33.1 0.0
  endloop
endfacet
facet normal 0.0 0.0 -1.0
  outer loop
    vertex 1.5 30.9 1.9999999999999991
    vertex 31.063819999999993 1.5000000000000009 1.9999999999999991
    vertex 1.4999999999999996 1.4999999999999996 1.9999999999999991
  endloop
endfacet
facet normal 0.0 0.0 -1.0
  outer loop
    vertex 31.063819999999993 1.5000000000000009 1.9999999999999991
    vertex 1.5 30.9 1.9999999999999991
    vertex 31.063819999999993 30.9 1.9999999999999991
  endloop
endfacet
facet normal 1.0 0.0 0.0
  outer loop
    vertex 46.3 26.1 -11.0
    vertex 46.3 6.500000000000001 0.0
    vertex 46.3 6.499999999999999 -11.0
  endloop
endfacet
facet normal 1.0 0.0 0.0
  outer loop
    vertex 46.3 6.500000000000001 0.0
    vertex 46.3 26.1 -11.0
    vertex 46.3 26.1 0.0
  endloop
endfacet
facet normal 0.0 0.0 -1.0
  outer loop
    vertex 46.3 26.1 -11.0
    vertex -0.49999999999999906 6.500000000000001 -11.0
    vertex -0.49999999999999906 26.1 -11.0
  endloop
endfacet
facet normal 0.0 0.0 -1.0
  outer loop
    vertex -0.49999999999999906 6.500000000000001 -11.0
    vertex 46.3 26.1 -11.0
    vertex 46.3 6.499999999999999 -11.0
  endloop
endfacet
facet normal 0.0 1.0 0.0
  outer loop
    vertex -0.49999999999999906 26.1 0.0
    vertex 46.3 26.1 -11.0
    vertex -0.49999999999999906 26.1 -11.0
  endloop
endfacet
facet normal 0.0 1.0 0.0
  outer loop
    vertex 46.3 26.1 -11.0
    vertex -0.49999999999999906 26.1 0.0
    vertex 46.3 26.1 0.0
  endloop
endfacet
facet normal 0.0 1.0 0.0
  outer loop
    vertex 46.3 26.1 0.0
    vertex -0.49999999999999906 26.1 0.0
    vertex 33.3 26.1 0.0
  endloop
endfacet
facet normal 0.0 0.0 -1.0
  outer loop
    vertex 33.3 33.1 0.0
    vertex -0.49999999999999906 26.1 0.0
    vertex -0.49999999999999994 33.1 0.0
  endloop
endfacet
facet normal 0.0 0.0 -1.0
  outer loop
    vertex -0.49999999999999906 26.1 0.0
    vertex 33.3 33.1 0.0
    vertex 33.3 26.1 0.0
  endloop
endfacet
facet normal 0.0 0.0 1.0
  outer loop
    vertex 46.3 6.500000000000001 0.0
    vertex 33.3 26.1 0.0
    vertex 33.3 6.500000000000001 0.0
  endloop
endfacet
facet normal 0.0 0.0 1.0
  outer loop
    vertex 33.3 26.1 0.0
    vertex 46.3 6.500000000000001 0.0
    vertex 46.3 26.1 0.0
  endloop
endfacet
facet normal 7.204942553649095e-18 -1.0 -5.5435028145069283e-17
  outer loop
    vertex 33.3 -0.49999999999999994 4.999999999999999
    vertex -0.49999999999999994 -0.49999999999999994 0.0
    vertex 33.3 -0.4999999999999995 0.0
  endloop
endfacet
facet normal 7.204942553649095e-18 -1.0 -5.5435028145069283e-17
  outer loop
    vertex -0.49999999999999994 -0.49999999999999994 0.0
    vertex 33.3 -0.49999999999999994 4.999999999999999
    vertex -0.49999999999999994 -0.49999999999999994 4.999999999999999
  endloop
endfacet
facet normal -4.419366589993087e-34 7.607673295071418e-18 -1.0
  outer loop
    vertex 33.3 26.1 0.0
    vertex -0.49999999999999906 6.500000000000001 0.0
    vertex -0.49999999999999906 26.1 0.0
  endloop
endfacet
facet normal -4.419366589993087e-34 7.607673295071418e-18 -1.0
  outer loop
    vertex -0.49999999999999906 6.500000000000001 0.0
    vertex 33.3 26.1 0.0
    vertex 33.3 6.500000000000001 0.0
  endloop
endfacet
facet normal 1.0 0.0 0.0
  outer loop
    vertex 33.3 -0.4999999999999995 0.0
    vertex 33.3 33.1 4.999999999999999
    vertex 33.3 -0.49999999999999994 4.999999999999999
  endloop
endfacet
facet normal 1.0 0.0 0.0
  outer loop
    vertex 33.3 33.1 4.999999999999999
    vertex 33.3 -0.4999999999999995 0.0
    vertex 33.3 6.500000000000001 0.0
  endloop
endfacet
facet normal 1.0 0.0 0.0
  outer loop
    vertex 33.3 33.1 4.999999999999999
    vertex 33.3 6.500000000000001 0.0
    vertex 33.3 26.1 0.0
  endloop
endfacet
facet normal 1.0 0.0 0.0
  outer loop
    vertex 33.3 33.1 4.999999999999999
    vertex 33.3 26.1 0.0
    vertex 33.3 33.1 0.0
  endloop
endfacet
facet normal 2.611896953407535e-34 -2.130148522619997e-17 -1.0
  outer loop
    vertex -0.49999999999999906 6.500000000000001 0.0
    vertex 33.3 -0.4999999999999995 0.0
    vertex -0.49999999999999994 -0.49999999999999994 0.0
  endloop
endfacet
facet normal 2.611896953407535e-34 -2.130148522619997e-17 -1.0
  outer loop
    vertex 33.3 -0.4999999999999995 0.0
    vertex -0.49999999999999906 6.500000000000001 0.0
    vertex 33.3 6.500000000000001 0.0
  endloop
endfacet
facet normal -1.40376983381281e-17 -1.0 7.358745569808563e-17
  outer loop
    vertex 46.3 6.500000000000001 0.0
    vertex -0.49999999999999906 6.500000000000001 -11.0
    vertex 46.3 6.499999999999999 -11.0
  endloop
endfacet
facet normal -1.40376983381281e-17 -1.0 7.358745569808563e-17
  outer loop
    vertex -0.49999999999999906 6.500000000000001 -11.0
    vertex 46.3 6.500000000000001 0.0
    vertex -0.49999999999999906 6.500000000000001 0.0
  endloop
endfacet
facet normal -1.40376983381281e-17 -1.0 7.358745569808563e-17
  outer loop
    vertex -0.49999999999999906 6.500000000000001 0.0
    vertex 46.3 6.500000000000001 0.0
    vertex 33.3 6.500000000000001 0.0
  endloop
endfacet
endsolid viv-handle1
